<?xml version="1.0" encoding="UTF-8" standalone="no"?>
<!DOCTYPE svg PUBLIC "-//W3C//DTD SVG 1.1//EN" "http://www.w3.org/Graphics/SVG/1.1/DTD/svg11.dtd">
<!--Generated by Intaglio, www.PurgatoryDesign.com-->
<svg version="1.1" viewBox="0,0,576,734" width="576" height="734" xmlns="http://www.w3.org/2000/svg" xmlns:xlink="http://www.w3.org/1999/xlink" xmlns:intaglio="http://purgatorydesign.com/namespaces/intaglio" intaglio:grid="36,36,1,1,0.5,#9999bf,1,0,0,0" intaglio:guides="0.8,#f0f,1,1" intaglio:ruler="1,2,2,1,1,0,0"><g><path fill="none" stroke="#dbdbdb" stroke-width="10" d="M37.9031,324.054 C38.1264,462.125,150.236,573.873,288.307,573.65 C426.378,573.426,538.125,461.317,537.902,323.246 C537.679,185.175,425.569,73.4273,287.498,73.6507 C149.585,73.8737,37.9028,185.737,37.9028,323.65"/><path fill="none" stroke="#c1151b" stroke-width="10" d="M487.902,323.65 C487.902,213.193,398.359,123.65,287.903,123.65 C177.446,123.65,87.9027,213.193,87.9027,323.65"/><path fill="none" stroke="#0cca00" stroke-width="10" d="M447.902,323.65 C447.902,235.285,376.268,163.65,287.903,163.65 C199.537,163.65,127.903,235.285,127.903,323.65"/><path fill="none" stroke="#3448f3" stroke-width="10" d="M415.902,323.65 C415.902,252.958,358.595,195.65,287.903,195.65 C217.21,195.65,159.903,252.958,159.903,323.65"/><path fill="none" stroke="#a61bab" stroke-width="10" d="M390.302,323.608 C390.302,267.054,344.456,221.208,287.903,221.208 C231.349,221.208,185.503,267.054,185.503,323.608"/><path fill="none" stroke="#616161" stroke-width="10" d="M369.822,323.608 C369.822,278.364,333.146,241.688,287.903,241.688 C242.659,241.688,205.983,278.364,205.983,323.608"/><path fill="#fc9e09" d="M294.623,323.65 C294.623,327.362,291.615,330.371,287.903,330.371 C284.191,330.371,281.183,327.362,281.183,323.65 C281.183,319.939,284.191,316.93,287.903,316.93 C291.615,316.93,294.623,319.939,294.623,323.65 Z"/><path fill="#fc9e09" d="M292.903,573.65 C292.903,576.411,290.664,578.65,287.903,578.65 C285.141,578.65,282.903,576.411,282.903,573.65 C282.903,570.888,285.141,568.65,287.903,568.65 C290.664,568.65,292.903,570.888,292.903,573.65 Z"/></g></svg>
