<?xml version="1.0" encoding="UTF-8" standalone="no"?>
<!DOCTYPE svg PUBLIC "-//W3C//DTD SVG 1.1//EN" "http://www.w3.org/Graphics/SVG/1.1/DTD/svg11.dtd">
<!--Generated by Intaglio, www.PurgatoryDesign.com-->
<svg version="1.1" viewBox="0,0,1584,1584" width="1584" height="1584" xmlns="http://www.w3.org/2000/svg" xmlns:xlink="http://www.w3.org/1999/xlink" xmlns:intaglio="http://purgatorydesign.com/namespaces/intaglio" intaglio:grid="36,36,1,1,0.5,#9999bf,1,0,0,0" intaglio:guides="0.8,#f0f,1,1"><image xlink:href="1.png" width="1500" height="264" transform="matrix(1,0,0,1,20,254)"/><path fill="none" stroke="#fc9e09" stroke-width="5" d="M799,220 L750.611,1527.44"/><path fill="none" stroke="#fc9e09" stroke-width="5" d="M1172.01,297.663 L718.653,1527.44"/><path fill="none" stroke="#fc9e09" stroke-width="5" d="M1296.98,348.674 L690.792,1494.67"/><path fill="none" stroke="#fc9e09" stroke-width="5" d="M981.285,273.08 L889.917,1306.19"/><path fill="none" stroke="#fc9e09" stroke-width="5" d="M494.202,270.403 L879.562,1549.06"/><path fill="none" stroke="#fc9e09" stroke-width="5" d="M379.046,320.916 L770,1494.67"/><path fill="none" stroke="#fc9e09" stroke-width="5" d="M729.628,254 L821.031,1401.53"/><path fill="none" stroke="#fc9e09" stroke-width="5" d="M1486.52,252.563 L1486.52,518"/><path fill="none" stroke="#3448f3" stroke-width="5" d="M1486.52,518 L1486.52,783.437"/><path fill="none" stroke="#fc9e09" stroke-width="5" d="M1486.52,775.073 L1486.52,1040.51"/><path fill="none" stroke="#fc9e09" stroke-width="5" d="M1486.52,1040.51 L1486.52,1305.95"/><path fill="none" stroke="#3448f3" stroke-width="5" d="M1486.52,1040.51 L1486.52,1305.95"/><path fill="none" stroke="#fc9e09" stroke-width="5" d="M1486.52,1305.95 L1221.08,1305.95"/><path fill="none" stroke="#a61bab" stroke-width="5" d="M1221.08,1306.19 L955.643,1306.19"/><path fill="none" stroke="#1f77b4" stroke-width="5" d="M956.228,1305.95 L690.792,1305.95"/></svg>
